<mxfile host="app.diagrams.net" modified="2024-07-24T10:19:52.794Z" agent="Mozilla/5.0 (X11; Linux x86_64; rv:127.0) Gecko/20100101 Firefox/127.0" version="24.7.2" etag="2WdAlJ2_5o62fYbpV4Gr" type="github">
  <diagram name="Страница — 1" id="imy_X0QdMkRBB19UmXbR">
    <mxGraphModel>
      <root>
        <mxCell id="0" />
        <mxCell id="1" parent="0" />
      </root>
    </mxGraphModel>
  </diagram>
</mxfile>
